<svg enable-background="new 0 0 148.6 165.6" viewBox="0 0 148.6 165.6" xmlns="http://www.w3.org/2000/svg"><g fill="#fff"><path d="m7.4 165.2-.2-1.6c-1 1-2.2 2-3.7 2-2 0-3.5-1.6-3.5-3.7 0-3.7 3.8-4.5 6.7-5.2l.6-.2v-.7c0-1.5-1-2.2-2.4-2.2s-2.4.9-3.1 2l-1.3-.9c1.1-1.5 2.4-2.6 4.4-2.6 1.7 0 4.2 1.1 4.2 4v6.3c0 .9 0 1.9.3 2.8zm-.9-7c-1.7.5-4.8 1.2-4.8 3.5 0 1.1.8 2.1 1.9 2.1 1.4 0 2.7-1 3.6-2.1v-3.7z"/><path d="m13.7 165.2h-1.8v-18h1.8v6.6c.8-.9 2-1.7 3.2-1.7 2.2 0 4.7 2 4.7 7 0 4.9-2.9 6.5-4.7 6.5-1.4 0-2.4-.8-3.3-1.8v1.4zm0-3.6c.5 1.1 1.7 2.4 3 2.4s3-1.2 3-5c0-1.9-.5-5.4-3.1-5.4-1.4 0-2.4 1-3 2.1v5.9z"/><path d="m30.8 155.3c-.7-1.1-1.6-1.7-2.9-1.7-1.2 0-2.3.6-2.3 1.9 0 3.1 6.7 1.8 6.7 6.1 0 2.5-1.8 4-4.2 4-2 0-3.7-.9-4.8-2.7l1.4-.9c.7 1.3 1.8 2.1 3.3 2.1 1.3 0 2.5-.7 2.5-2.2 0-3.2-6.7-1.7-6.7-6.3 0-2.2 1.8-3.5 3.9-3.5 1.8 0 3.3.7 4.3 2.2z"/><path d="m34.2 158.8c0-4.8 2.3-6.8 5.1-6.8s5.1 2 5.1 6.8-2.3 6.8-5.1 6.8-5.1-2-5.1-6.8zm8.4 0c0-2.2-.5-5.2-3.3-5.2s-3.3 3.1-3.3 5.2c0 2.2.5 5.2 3.3 5.2s3.3-3 3.3-5.2z"/><path d="m47 147.2h1.8v18h-1.8z"/><path d="m58.6 152.4h1.8v12.8h-1.8v-1.3c-1.1.9-2 1.7-3.5 1.7-1.8 0-3.3-1-3.3-4.3v-8.8h1.8v8.4c0 1.3.2 3.3 1.7 3.3 1.1 0 2.6-1.1 3.3-1.9z"/><path d="m66 152.4h2.9v1.5h-2.9v8c0 1.3 0 2.1 1.5 2.1.5 0 1 0 1.4-.2v1.3c-.6.2-1.2.4-1.8.4-3 0-2.9-2.1-2.9-4.4v-7.2h-2v-1.5h2v-4.1h1.8z"/><path d="m72 159.1c0 3.7 1.5 4.9 3.4 4.9 1.4 0 2.5-1.1 3.1-2.2l1.3.9c-.7 1.6-2.4 2.9-4.6 2.9-2.8 0-5.1-2-5.1-6.8s2.3-6.8 5.1-6.8c3.7 0 4.7 3.9 4.5 7.1zm5.8-1.5c0-1.6-.8-4-2.7-4-2 0-3 2.2-3 4z"/><path d="m98.1 152.4h2.9v1.5h-2.9v8c0 1.3 0 2.1 1.4 2.1.5 0 1 0 1.4-.2v1.3c-.6.2-1.2.4-1.8.4-3.1 0-2.9-2.1-2.9-4.4v-7.2h-1.9v-1.5h1.9v-4.1h1.8v4.1z"/><path d="m104.6 155.2c.8-1.5 1.7-2.9 3.6-2.9h.7v1.6c-2.4-.3-3.6 2.2-4.3 4.1v7.3h-1.8v-12.8h1.8z"/><path d="m117 165.2-.2-1.6c-1 1-2.2 2-3.7 2-2 0-3.5-1.6-3.5-3.7 0-3.7 3.8-4.5 6.7-5.2l.6-.2v-.7c0-1.5-1-2.2-2.4-2.2s-2.4.9-3.1 2l-1.3-.9c1.1-1.5 2.5-2.6 4.4-2.6 1.7 0 4.2 1.1 4.2 4v6.3c0 .9 0 1.9.3 2.8zm-.9-7c-1.7.5-4.8 1.2-4.8 3.5 0 1.1.8 2.1 1.9 2.1 1.4 0 2.8-1 3.6-2.1v-3.7z"/><path d="m128.8 156c-.5-1.2-1.1-2.4-2.6-2.4-2.8 0-3.3 3.1-3.3 5.2 0 2.2.5 5.2 3.3 5.2 1.6-.1 2.4-1.3 3-2.6l1.5.6c-.7 2-2.4 3.5-4.5 3.5-2.8 0-5.1-2-5.1-6.8s2.3-6.8 5.1-6.8c2.1 0 3.4 1.3 4.1 3.2z"/><path d="m135.5 152.4h2.9v1.5h-2.9v8c0 1.3 0 2.1 1.5 2.1.5 0 1 0 1.4-.2v1.3c-.6.2-1.2.4-1.8.4-3.1 0-2.9-2.1-2.9-4.4v-7.2h-1.9v-1.5h1.9v-4.1h1.8z"/><path d="m147.1 155.3c-.7-1.1-1.6-1.7-2.9-1.7-1.2 0-2.3.6-2.3 1.9 0 3.1 6.7 1.8 6.7 6.1 0 2.5-1.8 4-4.2 4-2.1 0-3.7-.9-4.8-2.7l1.4-.9c.7 1.3 1.8 2.1 3.3 2.1 1.3 0 2.5-.7 2.5-2.2 0-3.2-6.7-1.7-6.7-6.3 0-2.2 1.8-3.5 3.9-3.5 1.8 0 3.3.7 4.2 2.2z"/><path d="m89 155.7 5.1 9.5h-2.2l-3.9-7.7h-.1l-4 7.7h-2l4.9-9.5-4.6-8.5h2.1l3.6 6.8h.1l3.5-6.8h2z"/><path clip-rule="evenodd" d="m143.3 123.3c.4 0 .7 0 .9.1.3.1.5.4.5.8 0 .3-.1.5-.3.6-.1.1-.3.1-.5.2.2 0 .4.1.6.3.1.2.2.3.2.5v.2.2.2h-.5v-.1-.3c0-.4-.1-.6-.3-.7-.1-.1-.3-.1-.6-.1h-.4v1.3h-.6v-3.2zm.6.5c-.1-.1-.4-.1-.7-.1h-.5v1.2h.5c.2 0 .4 0 .5-.1.2-.1.3-.3.3-.5.1-.3 0-.4-.1-.5zm-3.5 1.1c0-.8.3-1.5.8-2.1.6-.6 1.3-.8 2.1-.9.8 0 1.5.3 2.1.9s.9 1.2.9 2.1c0 .8-.3 1.5-.9 2.1s-1.3.9-2.1.9-1.5-.3-2.1-.9c-.5-.6-.8-1.3-.8-2.1zm.4 0c0 .7.2 1.3.7 1.8s1.1.7 1.8.7 1.3-.2 1.8-.7.7-1.1.7-1.8-.2-1.3-.7-1.8-1.1-.7-1.8-.7-1.3.2-1.8.7c-.4.5-.7 1.1-.7 1.8z" fill-rule="evenodd"/><path d="m60.3 93.1s-5 0-6.8 0c-8.2 0-12 5.2-12 9.7v15.6c0 11.1 12.8 10.3 12.8 10.3l8.1-9 8.1 9v-42.3c0-8.7-6.9-10.7-11.4-10.7h-9.3l-4.6 9h10.5c4 0 4.5 2.9 4.5 4.7v3.7zm-7.9 12c0-1.6 1.2-2.8 2.8-2.8h5v16.2h-5c-1.6 0-2.8-1-2.8-2.8z"/><path d="m103.5 86.4c0-8.7-7-10.7-11.3-10.7h-7.3v-28.1l-10.4 11.5v69.5l8.2-9 8.1 9c.5 0 7.5.4 11.1-5.5 1.5-2.3 1.6-4.2 1.6-4.8 0-9.4 0-31.9 0-31.9zm-12.6 31.9h-6.1v-33.5h4.4c4 0 4.4 2.9 4.4 4.7v26c.1 1.6-1.1 2.8-2.7 2.8z"/><path d="m140.1 75.7h-10.8l-8 16.5-8.1-16.5h-10.8l13.5 26-13.4 26.1h10.7l8.1-16.5 8 16.5h10.8l-13.5-26.1z"/><path d="m143.7 134.9h-128.2l58.8-114 24.5 47.7h10.8l-35.3-68.6-74.3 144.1h148.4z"/></g></svg>