<svg enable-background="new 0 0 1600 808.4" viewBox="0 0 1600 808.4" xmlns="http://www.w3.org/2000/svg"><g fill="#4d4d4e"><path d="m624.6 433.3-.5-4.3c-2.7 2.7-5.8 5.2-9.7 5.2-5.2 0-9.3-4.3-9.3-9.6 0-9.6 10.1-11.7 17.5-13.7l1.5-.4v-1.9c0-3.8-2.6-5.9-6.4-5.9-3.7 0-6.2 2.5-8.2 5.3l-3.3-2.5c2.8-4 6.4-6.8 11.5-6.8 4.6 0 11.1 2.8 11.1 10.4v16.7c0 2.5-.1 5 .9 7.4h-5.1zm-2.4-18.3c-4.5 1.3-12.7 3.2-12.7 9.2 0 2.8 2.2 5.6 5 5.6 3.8 0 7.2-2.6 9.5-5.5v-9.8z"/><path d="m641.1 433.3h-4.7v-47.3h4.7v17.2c2.2-2.3 5.1-4.4 8.4-4.4 5.7 0 12.4 5.2 12.4 18.4 0 12.9-7.7 17.1-12.2 17.1-3.7 0-6.3-2-8.6-4.8zm0-9.4c1.3 2.8 4.6 6.2 7.9 6.2s7.9-3.2 7.9-13c0-5-1.4-14.1-8-14.1-3.6 0-6.4 2.5-7.8 5.4z"/><path d="m685.9 407.2c-1.9-2.8-4.1-4.4-7.7-4.4-3.1 0-6 1.6-6 5 0 8.2 17.7 4.6 17.7 15.9 0 6.5-4.7 10.6-11 10.6-5.4 0-9.8-2.4-12.5-7.1l3.8-2.4c1.8 3.5 4.7 5.4 8.7 5.4 3.5 0 6.6-1.9 6.6-5.7 0-8.4-17.6-4.4-17.6-16.5 0-5.7 4.7-9.3 10.2-9.3 4.7 0 8.6 2 11.2 5.8z"/><path d="m694.9 416.5c0-12.6 6-17.7 13.4-17.7 7.5 0 13.4 5.2 13.4 17.7 0 12.6-5.9 17.7-13.4 17.7-7.4 0-13.4-5.1-13.4-17.7zm22.1 0c0-5.7-1.4-13.7-8.7-13.7s-8.7 8-8.7 13.7 1.4 13.7 8.7 13.7 8.7-8 8.7-13.7z"/><path d="m728.3 386h4.7v47.2h-4.7z"/><path d="m758.8 399.8h4.7v33.5h-4.7v-3.4c-2.8 2.2-5.4 4.4-9.2 4.4-4.8 0-8.6-2.6-8.6-11.4v-23.1h4.7v21.9c0 3.5.6 8.7 4.4 8.7 2.9 0 6.7-2.8 8.6-5.1v-25.5z"/><path d="m778.1 399.8h7.6v4h-7.6v21.1c0 3.3 0 5.4 3.8 5.4 1.3 0 2.6-.1 3.8-.4v3.4c-1.5.5-3.1 1-4.8 1-8 0-7.6-5.4-7.6-11.5v-18.9h-5.1v-4h5.1v-10.9h4.7v10.8z"/><path d="m794 417.3c0 9.6 4.1 12.9 8.9 12.9 3.5 0 6.5-2.8 8.2-5.8l3.4 2.2c-1.8 4.3-6.3 7.5-12.1 7.5-7.5 0-13.4-5.1-13.4-17.7s6-17.7 13.4-17.7c9.7 0 12.4 10.3 11.8 18.5h-20.2zm15.2-4c.1-4.3-2.2-10.5-7.2-10.5-5.3 0-7.9 5.8-7.9 10.5z"/><path d="m862.3 399.8h7.6v4h-7.6v21.1c0 3.3-.1 5.4 3.8 5.4 1.3 0 2.6-.1 3.8-.4v3.4c-1.5.5-3.1 1-4.7 1-8 0-7.6-5.4-7.6-11.5v-18.9h-5.1v-4h5.1v-10.9h4.8v10.8z"/><path d="m879.5 407h.1c1.9-4 4.3-7.7 9.3-7.7h1.8v4.3c-6.2-.9-9.4 5.8-11.2 10.7v19h-4.7v-33.5h4.7z"/><path d="m912.1 433.3-.5-4.3c-2.7 2.7-5.8 5.2-9.7 5.2-5.2 0-9.3-4.3-9.3-9.6 0-9.6 10.1-11.7 17.5-13.7l1.5-.4v-1.9c0-3.8-2.6-5.9-6.4-5.9-3.7 0-6.2 2.5-8.2 5.3l-3.3-2.5c2.8-4 6.5-6.8 11.6-6.8 4.5 0 11.1 2.8 11.1 10.4v16.7c0 2.5-.1 5 .9 7.4h-5.2zm-2.4-18.3c-4.5 1.3-12.7 3.2-12.7 9.2 0 2.8 2.2 5.6 5 5.6 3.8 0 7.2-2.6 9.5-5.5v-9.8z"/><path d="m943.1 409.1c-1.2-3.1-3-6.4-6.8-6.3-7.3 0-8.6 8-8.6 13.7s1.4 13.7 8.6 13.7c4.1-.2 6.4-3.5 7.8-6.7l3.8 1.7c-1.9 5.1-6.3 9.1-11.7 9.1-7.4 0-13.4-5.2-13.4-17.7 0-12.6 6-17.7 13.4-17.7 5.5 0 8.9 3.5 10.8 8.5z"/><path d="m960.5 399.8h7.6v4h-7.6v21.1c0 3.3-.1 5.4 3.8 5.4 1.4 0 2.6-.1 3.8-.4v3.4c-1.5.5-3.1 1-4.7 1-8 0-7.6-5.4-7.6-11.5v-18.9h-5.1v-4h5.1v-10.9h4.7z"/><path d="m990.9 407.2c-1.9-2.8-4.1-4.4-7.7-4.4-3.1 0-6 1.6-6 5 0 8.2 17.6 4.6 17.6 15.9 0 6.5-4.7 10.6-11 10.6-5.4 0-9.8-2.4-12.5-7.1l3.8-2.4c1.8 3.5 4.7 5.4 8.7 5.4 3.5 0 6.5-1.9 6.5-5.7 0-8.4-17.7-4.4-17.7-16.5 0-5.7 4.7-9.3 10.3-9.3 4.7 0 8.6 2 11.1 5.8z"/><path d="m838.7 408.5 13.3 24.8h-5.7l-10.5-20.2h-.1l-10.5 20.2h-5.3l12.9-24.8-12.2-22.4h5.8l9.3 17.8h.1l9.4-17.8h5.2z"/><path clip-rule="evenodd" d="m980.9 323.4c1 0 1.8.1 2.3.3.9.4 1.3 1.1 1.3 2.1 0 .8-.3 1.3-.8 1.6-.3.2-.7.3-1.2.4.7.1 1.1.4 1.4.8s.5.9.5 1.3v.6.6c0 .2 0 .4.1.5l.1.1h-1.4v-.1-.1-.3-.7c0-1-.3-1.6-.8-1.9-.3-.2-.9-.3-1.6-.3h-1.2v3.3h-1.6v-8.4h2.9zm1.6 1.3c-.4-.2-1-.3-1.8-.3h-1.3v3h1.3c.6 0 1.1-.1 1.4-.2.6-.2.8-.7.8-1.3.2-.5 0-.9-.4-1.2zm-9 2.9c0-2.1.7-3.9 2.2-5.4s3.3-2.2 5.4-2.2 3.9.8 5.4 2.2c1.5 1.5 2.2 3.3 2.2 5.4s-.8 3.9-2.2 5.4c-1.5 1.5-3.3 2.2-5.4 2.2s-3.9-.7-5.4-2.2c-1.5-1.4-2.2-3.2-2.2-5.4zm1 0c0 1.8.6 3.4 1.9 4.7s2.8 1.9 4.6 1.9 3.4-.6 4.7-1.9 1.9-2.8 1.9-4.7c0-1.8-.6-3.4-1.9-4.6-1.3-1.3-2.9-1.9-4.7-1.9s-3.4.7-4.6 1.9c-1.2 1.3-1.9 2.8-1.9 4.6z" fill-rule="evenodd"/><path d="m763.2 244.2s-13.1 0-17.7 0c-21.4 0-31.5 13.6-31.5 25.4v40.8c0 29.2 33.5 27 33.5 27l21.3-23.6 21.4 23.7v-110.8c0-22.8-18.1-27.9-29.9-27.9h-24.5l-12 23.5h27.4c10.4 0 11.9 7.7 11.9 12.3v9.6zm-20.6 31.6c0-4.2 3.2-7.4 7.4-7.4h13.1v42.5h-13.1c-4.2 0-7.4-2.5-7.4-7.4z"/><path d="m876.5 226.7c0-22.8-18.3-28-29.7-28h-19.1v-73.8l-27.2 30v182.3l21.4-23.7 21.2 23.7c1.2-.1 19.7.9 29.2-14.4 4-6 4.2-10.9 4.2-12.5 0-24.8 0-83.6 0-83.6zm-33 83.6h-16l.1-88h11.5c10.5 0 11.7 7.7 11.7 12.3l.1 68.2c0 4.3-3.2 7.5-7.4 7.5z"/><path d="m972.6 198.5h-28.3l-21.1 43.3-21.1-43.3h-28.3l35.2 68.4-35.1 68.4h28.2l21.1-43.4 21.1 43.4h.1 28.2l-35.3-68.4z"/><path d="m982 353.8h-336.3l154.2-299 64.4 125.1h28.2l-92.6-179.9-194.8 377.9h389.3z"/><path d="m600.2 603.1v65.2h19.4l7.2-7.6v-49.8l-7.2-7.8z"/><path d="m910.7 557.8v-28h-872.6c-21 0-38.1 17.1-38.1 38v202c0 20.9 17.1 38 38.1 38h872.7v-39.1c0-58.3-47.3-105.5-105.5-105.5 58.2 0 105.4-47.2 105.4-105.4zm-743.7 182.5-21.7 22.9h-49.7l-21.7-22.9v-33.4h33.1v19.9l7.5 7.6h11.9l7.2-7.6v-36.4l-5.7-6h-34.9l-18.3-19.4v-66.6l21.7-22.8h48.7l21.7 22.8v33.4h-33.4v-19.5l-7.2-7.9h-10.9l-7.5 7.9v34.8l5.7 6h35.2l18.4 19.3v67.9zm115.2 22.8h-71.7v-187.5h33.4v156.8h38.3zm119.3 0h-79v-187.5h78.5v30.7h-45v45.9h40.9v30.8h-40.9v49.4h45.5zm122.1 0h-79v-187.5h78.4v30.7h-45v45.9h41v30.8h-40.9v49.4h45.5zm136.6-91.3-21.7 22.9h-38.3v68.5h-33.4v-187.6h71.7l21.7 22.8zm101.4 34v57.4h-33.1v-57.4l-36-130.1h34.9l18.4 87.2 20.2-87.2h31.8z"/><path d="m1563.7 530.4h-653v28c0 58.3 47.2 105.5 105.5 105.5-58.3 0-105.5 47.2-105.5 105.5v39.1h652.9c20 0 36.3-16.4 36.3-36.3v-205.5c.1-20-16.3-36.3-36.2-36.3zm-439 77.3h-30.5v156h-33.2v-156h-30.3v-31.5h93.9v31.5zm105.3-4.8h-19.9v134.2h19.9v26.6h-73.3v-26.6h19.9v-134.2h-19.9v-26.6h73.3zm180.9 160.8h-30.8v-157.9l-23.1 157.9h-35.5l-23-157.9v157.9h-27.1v-187.4h50.1l19.4 150 19.2-150h50.7v187.4zm126 0h-79v-187.4h78.4v30.7h-45v45.9h40.9v30.7h-40.9v49.4h45.5v30.7z"/></g></svg>