<svg enable-background="new 0 0 107.8 107.5" viewBox="0 0 107.8 107.5" xmlns="http://www.w3.org/2000/svg"><g fill="#4d4d4d"><path clip-rule="evenodd" d="m104.1 92c.2 0 .4 0 .6.1s.4.3.4.6c0 .2-.1.4-.2.5s-.2.1-.3.1c.2 0 .3.1.4.2s.1.2.1.4v.2.2.1h-.4v-.1-.2c0-.2-.1-.4-.2-.6-.1-.1-.3-.1-.5-.1h-.3v.9h-.4v-2.3zm.4.4c-.2-.1-.3-.1-.5-.1h-.3v.9h.4c.1 0 .3 0 .4-.1.2-.1.3-.4.2-.6-.1 0-.1-.1-.2-.1m-2.5.8c0-.6.2-1.1.6-1.5.8-.8 2.1-.8 2.9-.1 0 0 0 0 .1.1.4.4.6 1 .6 1.5 0 .6-.2 1.1-.6 1.5-.8.8-2.1.9-2.9.1 0 0 0 0-.1-.1-.4-.4-.6-.9-.6-1.5m.3 0c0 .5.2 1 .5 1.3.7.7 1.8.7 2.5 0 .3-.4.5-.8.5-1.3s-.2-1-.5-1.3c-.7-.7-1.8-.7-2.5-.1 0 0 0 0-.1.1-.2.3-.4.8-.4 1.3" fill-rule="evenodd"/><path d="m43.8 69.5s-3.6 0-4.9 0c-5.9 0-8.7 3.9-8.7 7.2v11.6c0 8.3 9.3 7.7 9.3 7.7l5.9-6.7 5.9 6.7v-31.5c0-6.5-5-8-8.3-8h-6.8l-3.3 6.7h7.6c2.9 0 3.3 2.2 3.3 3.5zm-5.7 9c0-1.1.8-2.1 1.9-2.1h.1 3.6v12.1h-3.6c-1.1.1-2-.7-2.1-1.8 0-.1 0-.2 0-.3v-7.9z"/><path d="m75.2 64.5c0-6.5-5.1-8-8.2-8h-5.3v-21l-7.5 8.5v52l5.9-6.8 5.9 6.7c.3 0 5.5.3 8.1-4.1.7-1 1.1-2.3 1.2-3.6-.1-7-.1-23.7-.1-23.7m-9.2 23.8h-4.4v-25h3.2c2.9 0 3.2 2.2 3.2 3.5v19.4c.1 1.1-.8 2-2 2.1.1 0 .1 0 0 0"/><path d="m101.8 56.5h-7.8l-5.9 12.3-5.8-12.3h-7.8l9.8 19.5-9.7 19.5h7.8l5.7-12.5 5.8 12.4h7.8l-9.7-19.5z"/><path d="m104.4 100.7h-93.2l42.8-85.1 17.8 35.6h7.8l-25.7-51.2-53.9 107.5h107.8z"/></g></svg>