<svg enable-background="new 0 0 238.5 70.4" viewBox="0 0 238.5 70.4" xmlns="http://www.w3.org/2000/svg"><g fill="#4d4d4e"><path d="m8.8 7.9h-5.2l-1.1 1.9h5.2c2.3 0 2.7.5 2.7 3.4v1.8h-5.4c-3.8 0-4.8 1.5-4.8 4.2v2.3c0 2.7 1 4.2 4.8 4.2h8.6v-12.4c0-3.9-1-5.4-4.8-5.4zm-2.6 15.8c-2.3 0-2.7-.5-2.7-2.5v-2c0-1.7.4-2.4 2.7-2.4h4.2v6.8h-4.2z"/><path d="m26.4 7.9h-5.9v-7.9l-3.2 3v22.6h9.2c3.8 0 4.8-1.5 4.8-5.4v-6.8c-.1-4-1.1-5.5-4.9-5.5zm1.6 12.4c0 2.8-.4 3.4-2.7 3.4h-4.8v-13.9h4.8c2.3 0 2.7.5 2.7 3.4z"/><path d="m42.5 15.2h-2.8c-2.2 0-2.7-.4-2.7-2.8s.9-2.6 2.7-2.6h5.9v-1.9h-6.7c-3.6 0-4.8 1.8-4.8 4.9 0 3.6 1.1 5 4.3 5h3c2.6 0 3.1.3 3.1 2.8 0 2.9-1 3-2.8 3h-7v1.9h7.6c3.7 0 5.1-1.7 5.1-5.3 0-3.9-1.2-5-4.9-5z"/><path d="m59.8 7.9h-4.8c-3.8 0-4.8 1.5-4.8 5.4v6.8c0 3.9 1 5.4 4.8 5.4h4.8c3.8 0 4.8-1.5 4.8-5.4v-6.8c0-3.9-1-5.4-4.8-5.4zm1.5 12.4c0 2.8-.4 3.4-2.7 3.4h-2.6c-2.3 0-2.7-.5-2.7-3.4v-7.1c0-2.8.4-3.4 2.7-3.4h2.6c2.3 0 2.7.5 2.7 3.4z"/><path d="m68.1 2.6h3.2v23h-3.2z"/><path d="m85.7 23.7h-4.8c-2.3 0-2.7-.5-2.7-3.4v-12.4h-3.2v12.3c0 3.9 1 5.4 4.8 5.4h9.1v-17.7h-3.2z"/><path d="m95.8 3.3h-3.3v18.1c0 2.4 1 4.3 4 4.3h3.3v-1.9h-1.4c-1.7 0-2.7-.5-2.7-2.6v-11.4h5v-1.9h-5v-4.6z"/><path d="m111.8 7.9h-4.2c-3.8 0-4.8 1.5-4.8 5.4v6.8c0 3.9 1 5.4 4.8 5.4h7.7v-1.9h-6.6c-2.3 0-2.7-.5-2.7-3.4v-2.1h5.8c3.8 0 4.8-1.5 4.8-4.2v-1.9c0-2.6-.9-4.1-4.8-4.1zm1.6 6.1c0 1.7-1 2.4-3.3 2.4h-4v-3.2c0-2.8.4-3.4 2.7-3.4h1.3c2.3 0 3.3.5 3.3 2.5z"/><path d="m133.5 16.3 7.9-9.3c.1-.2.2-.3.2-.4 0-.2-.1-.3-.4-.3h-4.7c-.4 0-.6.1-1 .7l-4.8 5.8s-3.3-4.2-4.6-5.8c-.4-.5-.6-.7-1-.7h-5.1c-.3 0-.5.2-.5.4 0 .1 0 .2.1.3l7.9 9.6-8.3 10c-.1.1-.1.2-.1.3 0 .2.2.4.4.4h4.6c.4 0 .6-.1 1-.7l5.2-6.6 10 12.2c.4.6.6.7 1 .7h5.1c.3 0 .4-.2.4-.4 0-.1 0-.2-.1-.3z"/><path d="m154.5 7.6h-6.8v-3.1c0-.3-.3-.6-.5-.6h-.1l-3 .5c-.3.1-.6.3-.6.6v16c0 3.7 1.9 4.8 5 4.8 1.3 0 5.3-.1 6-.3.4-.1.6-.3.6-.6v-2c0-.3-.3-.5-.7-.5h-4.8c-1.4 0-1.9-.2-1.9-1.5v-10.1h6.8c.4 0 .6-.3.6-.6v-1.9c.1-.4-.2-.7-.6-.7z"/><path d="m169.4 7.4c-2.7 0-8.6 0-10.5.9-.6.2-.9.5-.9 1v15.6c0 .4.3.7.6.7h3c.3 0 .6-.3.6-.7v-13.7c.8-.2 6.1-.2 7.2-.2.7 0 .9-.2.9-.6v-2.5c0-.4-.5-.5-.9-.5z"/><path d="m187.7 8.2c-2-.5-6.1-.8-8.1-.8-5.1 0-7.6 3-7.6 8v2.4c0 5 2.5 8 7.6 8 2 0 6.2-.3 8.1-.8.7-.2.9-.4.9-.9v-15c0-.5-.1-.7-.9-.9zm-3.3 14c-.6.1-3.7.2-4.8.2-2.7 0-3.4-1.9-3.4-4.6v-2.4c0-2.6.7-4.6 3.4-4.6 1.1 0 4.2.1 4.8.2z"/><path d="m204.6 7.8c-.7-.2-4.5-.4-6.4-.4-4.1 0-7.3 2.5-7.3 7.7v3c0 5.2 3.1 7.7 7.3 7.7 1.9 0 5.7-.2 6.4-.4.5-.1.7-.3.7-.8v-2.1c0-.3-.3-.5-.6-.5h-.1c-1.3.2-4.4.2-6.4.2-1.5 0-3.1-.9-3.1-4.2v-3c0-3.3 1.6-4.2 3.1-4.2 2.1 0 5.2.1 6.4.2h.1c.3 0 .6-.2.6-.5v-1.9c0-.5-.1-.7-.7-.8z"/><path d="m218.9 7.6h-6.8v-3.1c0-.3-.3-.6-.5-.6h-.1l-3 .5c-.3.1-.6.3-.6.6v16c0 3.7 1.9 4.8 5 4.8 1.3 0 5.3-.1 6-.3.4-.1.6-.3.6-.6v-2c0-.3-.3-.5-.7-.5h-4.8c-1.4 0-1.9-.2-1.9-1.5v-10.1h6.8c.4 0 .6-.3.6-.6v-1.9c.1-.4-.2-.7-.6-.7z"/><path d="m235.2 16c-2-.9-6.3-1.7-8.2-2.5-.8-.4-1.3-.8-1.3-1.3 0-1 .7-1.3 2.2-1.3 1.8 0 7.8.3 8.7.4h.1c.3 0 .5-.2.5-.6v-1.9c0-.4-.2-.6-.6-.7-1.6-.3-6.6-.6-9.2-.6-4 0-6 1.6-6 4.8 0 1.8 1 3.6 2.7 4.4 2 .9 6.4 1.7 8.4 2.7 1.1.5 1.4 1 1.4 1.6 0 .9-.3 1.5-2.3 1.5-1 0-7.9-.2-9.4-.3h-.1c-.3 0-.6.3-.6.5v1.9c0 .4.2.6.6.7 1.8.5 8.5.6 9.8.6 4.2 0 6.2-2.2 6.2-5 .2-1.7 0-3.6-2.9-4.9z"/><path d="m91.2 47v6.3h6l1.2-1.2v-4l-1.1-1.1z"/><path d="m133.5 47v6.3h6l1.2-1.2v-4l-1.1-1.1z"/><path d="m193.8 47v6.3h6l1.2-1.2v-4l-1.2-1.1z"/><path d="m22.7 56h5.2l-2.6-9.5z"/><path d="m38 47v6.3h6l1.1-1.2v-4l-1.1-1.1z"/><path d="m238.5 41.1-3.5-3.5c-.1 0-.2 0-.2 0h-230.7l-4.1 4.1v24.3l4.4 4.4h230.4l3.8-3.8v-25.2c-.1-.1-.1-.2-.1-.3m-220.9 14.3h-7.4v7.9h-3.2v-18.7h11.2v2.5h-8.1v5.8h7.4v2.5zm12.3 7.9-1.3-4.8h-6.6l-1.3 4.8h-3.1l5.4-18.7h4.6l5.4 18.7zm15.5 0-2.4-7.7h-5v7.7h-3.2v-18.6h11.1l2.5 2.5v5.7l-2.3 2.3 2.6 8.1zm25.2 0h-3.1v-16.3l-5 16.3h-3.7l-4.9-16.3v16.3h-2.8v-18.6h4.9l4.8 15.9 4.8-15.9h4.9v18.6zm14.8 0h-11.5v-18.6h11.5v2.5h-8.3v5.5h7.6v2.5h-7.6v5.7h8.4v2.4zm13.2 0-2.4-7.7h-5.1v7.7h-3.1v-18.6h11.1l2.5 2.5v5.7l-2.3 2.3 2.6 8.1zm7.6-11.2h-2.5v-7.4h2.5zm15.4 8.7-2.5 2.5h-8.5l-2.4-2.4v-2.9h3.2v1.9l1 1h5.1l1-1v-3.9l-.8-.8h-7.2l-2.1-2.2v-5.8l2.5-2.5h8.4l2.4 2.4v2.8h-3.2v-1.8l-1-1h-4.9l-1 1v3.7l.8.8h7.3l2.1 2.1v6.1zm19.3 2.5-2.3-7.7h-5.1v7.7h-3.2v-18.6h11.1l2.5 2.5v5.7l-2.3 2.3 2.6 8.1zm17.4 0h-11.5v-18.6h11.5v2.5h-8.3v5.5h7.7v2.5h-7.7v5.7h8.4v2.4zm15.4-2.5-2.5 2.5h-8.5l-2.4-2.4v-2.9h3.2v1.9l1 1h5.1l1-1v-3.9l-.8-.8h-7.2l-2.1-2.2v-5.8l2.5-2.5h8.4l2.4 2.4v2.8h-3.2v-1.8l-1-1h-4.9l-1 1v3.7l.8.8h7.3l2.1 2.1v6.1zm14.3 2.5h-11.5v-18.6h11.5v2.5h-8.3v5.5h7.7v2.5h-7.7v5.7h8.4v2.4zm13.2 0-2.4-7.7h-5.1v7.7h-3.2v-18.6h11.1l2.5 2.5v5.7l-2.3 2.3 2.6 8.1zm13.7 0h-4.7l-4.8-18.7h3.2l4.1 16.5 4.1-16.5h2.9zm18 0h-11.5v-18.7h11.5v2.5h-8.3v5.5h7.6v2.5h-7.6v5.7h8.4v2.5z"/></g></svg>