<svg height="23.686" viewBox="0 0 186.319 23.686" width="186.319" xmlns="http://www.w3.org/2000/svg"><g fill="#fff"><path d="m63.811 46.532-.23-2.1c-1.297 1.322-2.756 2.568-4.636 2.568a4.559 4.559 0 0 1 -4.431-4.7c0-4.723 4.805-5.727 8.355-6.721l.712-.194v-.932a2.749 2.749 0 0 0 -3.043-2.889c-1.773 0-2.992 1.209-3.919 2.592l-1.593-1.22c1.337-1.967 3.074-3.34 5.512-3.34a5.076 5.076 0 0 1 5.322 5.124v8.18a9.7 9.7 0 0 0 .43 3.636zm-1.132-8.974c-2.141.656-6.06 1.547-6.06 4.508a2.675 2.675 0 0 0 2.408 2.745c1.8 0 3.447-1.291 4.554-2.684v-4.836z" transform="translate(-54.514 -23.328)"/><path d="m71.715 46.532h-2.269v-23.194h2.269v8.442a5.871 5.871 0 0 1 4.006-2.18c2.745 0 5.952 2.562 5.952 9.037 0 6.321-3.693 8.38-5.86 8.38a5.13 5.13 0 0 1 -4.1-2.366zm0-4.62c.635 1.4 2.177 3.073 3.77 3.073 1.568 0 3.8-1.577 3.8-6.4 0-2.479-.671-6.956-3.842-6.956a4.289 4.289 0 0 0 -3.729 2.654z" transform="translate(-54.514 -23.328)"/><path d="m93.132 33.747a4.105 4.105 0 0 0 -3.662-2.183c-1.481 0-2.874.779-2.874 2.449 0 4.026 8.452 2.254 8.452 7.807a4.944 4.944 0 0 1 -5.256 5.18 6.544 6.544 0 0 1 -5.978-3.453l1.8-1.168a4.443 4.443 0 0 0 4.174 2.654c1.655 0 3.135-.922 3.135-2.8 0-4.139-8.431-2.172-8.431-8.083a4.579 4.579 0 0 1 4.891-4.56 6.1 6.1 0 0 1 5.338 2.869z" transform="translate(-54.514 -23.328)"/><path d="m97.42 38.306c0-6.168 2.858-8.709 6.413-8.709 3.575 0 6.418 2.541 6.418 8.709s-2.842 8.7-6.418 8.7c-3.555 0-6.413-2.531-6.413-8.7m10.567 0c0-2.8-.671-6.752-4.154-6.752s-4.139 3.955-4.139 6.752.656 6.741 4.139 6.741 4.154-3.955 4.154-6.741" transform="translate(-54.514 -23.328)"/><path d="m58.868 0h2.274v23.205h-2.274z"/><g transform="translate(-54.514 -23.328)"><path d="m127.975 30.079h2.269v16.453h-2.269v-1.69c-1.326 1.1-2.566 2.162-4.395 2.162-2.28 0-4.093-1.271-4.093-5.564v-11.361h2.259v10.768c0 1.71.292 4.251 2.106 4.251 1.4 0 3.216-1.4 4.123-2.5z"/><path d="m137.211 30.079h3.637v1.977h-3.637v10.337c0 1.609-.026 2.654 1.834 2.654a7.911 7.911 0 0 0 1.8-.205v1.69a6.619 6.619 0 0 1 -2.269.472c-3.827 0-3.622-2.643-3.622-5.645v-9.3h-2.449v-1.98h2.449v-5.338h2.254z"/><path d="m144.792 38.695c0 4.712 1.942 6.352 4.247 6.352 1.7 0 3.124-1.4 3.924-2.828l1.628 1.1a6.117 6.117 0 0 1 -5.773 3.681c-3.565 0-6.413-2.531-6.413-8.7s2.848-8.709 6.413-8.709c4.626 0 5.948 5.072 5.63 9.1zm7.284-1.978c.046-2.11-1.06-5.153-3.432-5.153-2.545 0-3.77 2.838-3.79 5.153z"/><path d="m177.468 30.079h3.612v1.977h-3.612v10.337c0 1.609-.041 2.654 1.814 2.654a7.714 7.714 0 0 0 1.8-.205v1.69a6.56 6.56 0 0 1 -2.254.472c-3.837 0-3.637-2.644-3.637-5.645v-9.3h-2.441v-1.98h2.439v-5.338h2.279z"/><path d="m185.664 33.624h.057c.906-1.967 2.064-3.781 4.436-3.781h.876v2.121c-2.946-.43-4.5 2.858-5.369 5.225v9.343h-2.264v-16.453h2.259z"/><path d="m201.257 46.532-.235-2.1c-1.317 1.322-2.762 2.568-4.647 2.568a4.559 4.559 0 0 1 -4.431-4.7c0-4.723 4.8-5.727 8.355-6.721l.723-.194v-.933a2.756 2.756 0 0 0 -3.049-2.889c-1.777 0-2.986 1.209-3.918 2.593l-1.6-1.22c1.332-1.967 3.088-3.34 5.516-3.34a5.072 5.072 0 0 1 5.318 5.123v8.181a10.015 10.015 0 0 0 .425 3.637zm-1.137-8.974c-2.147.655-6.065 1.547-6.065 4.508a2.671 2.671 0 0 0 2.4 2.745 6.3 6.3 0 0 0 4.565-2.684v-4.836z"/><path d="m216.066 34.668c-.569-1.515-1.429-3.155-3.242-3.114-3.469 0-4.134 3.955-4.134 6.752s.665 6.731 4.134 6.731c1.946-.082 3.063-1.691 3.744-3.3l1.839.819c-.927 2.52-2.991 4.457-5.583 4.457-3.556 0-6.409-2.541-6.409-8.708s2.853-8.709 6.409-8.709c2.648 0 4.272 1.721 5.148 4.18z"/><path d="m224.38 30.079h3.627v1.977h-3.627v10.337c0 1.609-.036 2.653 1.823 2.653a7.7 7.7 0 0 0 1.8-.2v1.69a6.559 6.559 0 0 1 -2.254.472c-3.837 0-3.637-2.644-3.637-5.646v-9.3h-2.444v-1.983h2.444v-5.338h2.264z"/><path d="m238.927 33.746a4.124 4.124 0 0 0 -3.667-2.182c-1.465 0-2.869.779-2.869 2.449 0 4.026 8.442 2.254 8.442 7.806a4.941 4.941 0 0 1 -5.25 5.181 6.566 6.566 0 0 1 -5.989-3.453l1.819-1.168a4.422 4.422 0 0 0 4.17 2.653c1.649 0 3.129-.922 3.129-2.8 0-4.14-8.436-2.172-8.436-8.084 0-2.827 2.259-4.559 4.907-4.559a6.077 6.077 0 0 1 5.328 2.869z"/><path d="m166.158 34.382 6.342 12.161h-2.725l-4.975-9.928h-.056l-5.02 9.927h-2.525l6.173-12.161-5.825-11.034h2.725l4.472 8.739h.056l4.472-8.739h2.515z"/></g></g></svg>