<svg enable-background="new 0 0 1792 1792" viewBox="0 0 1792 1792" xmlns="http://www.w3.org/2000/svg"><path d="m1225 1079-146 146c-6.7 6.7-14.3 10-23 10s-16.3-3.3-23-10l-137-137-137 137c-6.7 6.7-14.3 10-23 10s-16.3-3.3-23-10l-146-146c-6.7-6.7-10-14.3-10-23s3.3-16.3 10-23l137-137-137-137c-6.7-6.7-10-14.3-10-23s3.3-16.3 10-23l146-146c6.7-6.7 14.3-10 23-10s16.3 3.3 23 10l137 137 137-137c6.7-6.7 14.3-10 23-10s16.3 3.3 23 10l146 146c6.7 6.7 10 14.3 10 23s-3.3 16.3-10 23l-137 137 137 137c6.7 6.7 10 14.3 10 23s-3.3 16.3-10 23zm215-183c0-98.7-24.3-189.7-73-273s-114.7-149.3-198-198-174.3-73-273-73-189.7 24.3-273 73-149.3 114.7-198 198-73 174.3-73 273 24.3 189.7 73 273 114.7 149.3 198 198 174.3 73 273 73 189.7-24.3 273-73 149.3-114.7 198-198 73-174.3 73-273zm224 0c0 139.3-34.3 267.8-103 385.5s-161.8 210.8-279.5 279.5-246.2 103-385.5 103-267.8-34.3-385.5-103-210.8-161.8-279.5-279.5-103-246.2-103-385.5 34.3-267.8 103-385.5 161.8-210.8 279.5-279.5 246.2-103 385.5-103 267.8 34.3 385.5 103 210.8 161.8 279.5 279.5 103 246.2 103 385.5z" fill="#fff"/></svg>