<?xml version="1.0" encoding="utf-8"?>
<!-- Generator: Adobe Illustrator 25.3.1, SVG Export Plug-In . SVG Version: 6.00 Build 0)  -->
<svg version="1.1" id="Layer_1" xmlns="http://www.w3.org/2000/svg" xmlns:xlink="http://www.w3.org/1999/xlink" x="0px" y="0px"
	 viewBox="0 0 26.5 26.5" style="enable-background:new 0 0 26.5 26.5;" xml:space="preserve">
<style type="text/css">
	.st0{fill:#333333;}
</style>
<path class="st0" d="M13.2,0C5.9,0,0,5.9,0,13.2s5.9,13.2,13.2,13.2s13.2-5.9,13.2-13.2S20.5,0,13.2,0C13.2,0,13.2,0,13.2,0z
	 M16.6,13.2h-2.2V21h-3.2v-7.8H9.6v-2.7h1.5V8.7C11,7,12.3,5.6,13.9,5.5c0.2,0,0.3,0,0.5,0l2.4,0v2.7h-1.7c-0.4,0-0.7,0.3-0.7,0.6
	c0,0,0,0,0,0c0,0,0,0.1,0,0.1v1.6h2.5L16.6,13.2z"/>
</svg>
