<svg id="Artwork" xmlns="http://www.w3.org/2000/svg" viewBox="0 0 238.6 266.4"><style>.st0{fill:#4d4d4e}</style><path class="st0" d="M57.7 59.3v50.3h-7.8V59.3H28.6V200h21.7v-69.1h7.6V200h21V59.3H57.7zM147.9 200h20.4v-69.6h11.2v-20.8h-11.2V79.4h11.2V59.3h-31.6V200zM89 59.3h20.3V200H89V59.3zm100.6 0H210V200h-20.4V59.3zm-72.1 50.3h22.1v20.8h-22.1v-20.8z"/><g><path class="st0" d="M64.5 224.9h-6.1v-6.2c0-1.3-.9-2.4-2-2.4s-2.1 1-2.1 2.3c0 2.2-.1 4.3.6 6.4.4 1 8.7 24.9 8.7 24.9.6 1.6.8 3.3.8 4.9.1 1.4.1 2.9-.2 4.3-.5 2.5-2 4.7-3.9 5.9-1.2.8-2.6 1.2-4 1.2-4.5 0-8.1-4.2-8.1-9.4v-7.4h6.1v7.4c0 1.3.9 2.4 2 2.4s2.1-1 2.1-2.3c0-2.2.1-4.3-.6-6.4-.4-1-8.7-24.9-8.7-24.9-.6-1.6-.8-3.3-.8-4.9-.1-1.4-.1-2.9.2-4.3.5-2.5 2-4.7 3.9-5.9 1.2-.8 2.6-1.2 4-1.2 4.5 0 8.1 4.2 8.1 9.4v6.2zm10.3-8.2v17.6h4.1v7h-4.1v17.6h4.1v7H68.6v-56.3h10.2v7h-4v.1zm24.5 8.2h-6.1v-6.2c0-1.3-.9-2.4-2-2.4s-2.1 1-2.1 2.3c0 2.2-.1 4.3.6 6.4.4 1 8.7 24.9 8.7 24.9.6 1.6.8 3.3.8 4.9.1 1.4.1 2.9-.2 4.3-.5 2.5-2 4.7-3.9 5.9-1.2.8-2.6 1.2-4 1.2-4.5 0-8.1-4.2-8.1-9.4v-7.4h6.1v7.4c0 1.3.9 2.4 2 2.4s2.1-1 2.1-2.3c0-2.2.1-4.3-.6-6.4-.4-1-8.7-24.9-8.7-24.9-.6-1.6-.8-3.3-.8-4.9-.1-1.4-.1-2.9.2-4.3.5-2.5 2-4.7 3.9-5.9 1.2-.8 2.6-1.2 4-1.2 4.5 0 8.1 4.2 8.1 9.4v6.2zm19.4 0h-6.1v-6.2c0-1.3-.9-2.4-2-2.4s-2.1 1-2.1 2.3c0 2.2-.1 4.3.6 6.4.4 1 8.7 24.9 8.7 24.9.6 1.6.8 3.3.8 4.9.1 1.4.1 2.9-.2 4.3-.5 2.5-2 4.7-3.9 5.9-1.2.8-2.6 1.2-4 1.2-4.5 0-8.1-4.2-8.1-9.4v-7.4h6.1v7.4c0 1.3.9 2.4 2 2.4s2.1-1 2.1-2.3c0-2.2.1-4.3-.6-6.4-.4-1-8.7-24.9-8.7-24.9-.6-1.6-.8-3.3-.8-4.9-.1-1.4-.1-2.9.2-4.3.5-2.5 2-4.7 3.9-5.9 1.2-.8 2.6-1.2 4-1.2 4.5 0 8.1 4.2 8.1 9.4v6.2zm3.9 41v-56.3h6.1v56.3h-6.1zm26.6-47.2V257c0 5.2-3.7 9.4-8.2 9.4s-8.2-4.2-8.2-9.4v-38.3c0-5.2 3.7-9.4 8.2-9.4s8.2 4.2 8.2 9.4zm-6.1 0c0-1.3-.9-2.3-2-2.3s-2 1.1-2 2.3V257c0 1.3.9 2.3 2 2.3s2-1.1 2-2.3v-38.3zm27.3-9V266h-5.5l-5.7-28.8V266h-6.1v-56.3h5.6l5.6 28.8v-28.8h6.1zm20 15.2h-6.1v-6.2c0-1.3-.9-2.4-2-2.4s-2.1 1-2.1 2.3c0 2.2-.1 4.3.6 6.4.4 1 8.7 24.9 8.7 24.9.6 1.6.8 3.3.8 4.9.1 1.4.1 2.9-.2 4.3-.5 2.5-2 4.7-3.9 5.9-1.2.8-2.6 1.2-4 1.2-4.5 0-8.1-4.2-8.1-9.4v-7.4h6.1v7.4c0 1.3.9 2.4 2 2.4s2.1-1 2.1-2.3c0-2.2.1-4.3-.6-6.4-.4-1-8.7-24.9-8.7-24.9-.6-1.6-.8-3.3-.8-4.9-.1-1.4-.1-2.9.2-4.3.5-2.5 2-4.7 3.9-5.9 1.2-.8 2.6-1.2 4-1.2 4.5 0 8.1 4.2 8.1 9.4v6.2z"/></g><path class="st0" d="M14.8 37.8l1.8-.1v12.1h-.2c-.5.1-.9.1-1.4.2h-.2v-2.5C9.9 48 5 48.6.2 49.1H0v-3.2h.2c.8-.1 1.6-.1 2.4-.2V5.2H0v-3h.2c3.3 0 6.6 0 10-.1h.2v3H7.8v40c2.5-.3 4.7-1.6 7-4v-3.3zm30.9 4h.2v2.9h-.2c-3.2.2-6.4.5-9.6.8h-.2v-3h.2c.7-.1 1.5-.1 2.2-.2-.7-5.5-1.4-11.1-2.1-16.7-1.2.1-2.4.2-3.5.2l-.4 2.5c-1.1 6.5-1.3 9.2-1.3 14.6.7-.1 1.4-.1 2.1-.2h.2v3h-.2c-2.7.2-5.4.5-8.1.7h-.2v-3.1h.2c.8-.1 1.5-.1 2.3-.2.7-2.8 1-4 1.6-7.3l.4-1.8c.7-3.3 1.1-5.3 1.6-8.2-1 0-2 .1-2.9.1h-.2v-3h.2c1.2-.1 2.4-.1 3.6-.2C33 15.4 34.5 8 36 .7V.5h2v.2c1 7.2 2 14.5 2.9 21.6 1.3-.1 2.5-.1 3.8-.1h.2v3h-.2c-1.1 0-2.2.1-3.3.1.7 5.5 1.5 11 2.2 16.5.6.1 1.4 0 2.1 0zM34.6 13.7c-.5 3-.9 6.1-1.4 9.1.9 0 1.7-.1 2.6-.1-.5-3-.8-6-1.2-9zm28.6 8H63v2.9h.2c1.2 0 2.5-.1 3.7-.1v16.4h-.1c-.9.5-1.3.7-2.3.8s-1.6-.1-2.1-.6c-1.6-1.5-2.2-6.7-2.2-18.4 0-16.4 1.6-19.3 5-19.3.8 0 1.6.3 2.3 1 1.7 1.7 2.7 5.5 2.7 10.3v.2H72V.5h-1.8v2.7c-1.5-1.7-2.5-2.7-5-2.7-3.1 0-5.6 1.9-7.4 5.6-1.8 3.8-2.7 9.5-2.7 16.8 0 10 1.7 16.9 5 20 1.2 1.1 2.6 1.7 4.1 1.7h.4c1.1-.1 1.9-.4 2.8-.7.8-.3 1.7-.7 2.8-.7 1.3-.1 2.6-.1 3.9-.2h.2v-2.9h-.2c-.7 0-1.3.1-2 .1V24.3c.7 0 1.3 0 2-.1h.2v-2.9h-.2c-3.6.2-7.3.3-10.9.4zM99.1 1.8h-.2v2.7h2.7c.2 3.5.8 16.2.8 22 0 4.6-.6 8.2-1.8 10.7-1.1 2.3-2.6 3.5-4.6 3.5-1 0-1.8-.2-2.3-.8-1.1-1.1-1.6-3.6-1.6-8V4.5h2.6V1.8H84.3v2.7h2.6V28c0 6.4 1.3 10.9 3.7 13.3 1.4 1.3 3.1 2 5.1 2h.2c3.7-.1 8.2-3.1 8.2-17.1 0-5.5.7-17.6 1.1-21.8h2.8V1.7v.1h-8.9zm41.1 0h-8.6v2.7h2.7c0 .2 0 .5.1.8.2 3 .7 10 .7 19.3v2.2c-4-8.4-7.9-16.8-11.8-24.8l-.1-.2h-6.1v2.7h1.1l2.8 6.3v7.7c0 6.8-.3 13.8-.9 20.8h-2.5v2.8h8.8v-2.8h-2.7c-.2-2-.8-10.3-.8-20.7v-3.7c4.2 9.2 8.7 19 13.1 28.6l.1.2.9-.5V24.6c0-10.4.7-17.6 1-20.1h2.5V1.8h-.3zM160.5 40c-.8 0-1.6-.1-2.4-.1L158 4.6h2.6V1.9h-10.4v2.7h2.6v35.2c-.8 0-1.6 0-2.4-.1h-.2v2.8h.2c3.3.1 6.7.2 10 .4h.2v-2.8l-.1-.1zM184.2.6v1.3h-12.7V.6h-1.8v11.7h1.8V7.7c1.3-2.1 2.8-2.9 3.7-3l.1 36c-.9 0-1.8-.1-2.7-.1h-.2v2.9h.2c3.5.2 7.1.4 10.7.6h.2v-2.9h-.2c-.9-.1-1.8-.1-2.8-.2l-.1-36.3c1.4.1 2.9 1.6 3.8 3.1v4.7h1.8V.6h-1.8zm31.3 43v3.1h-.2l-9.6-.9h-.2v-3h.2c.7.1 1.4.1 2.2.2-.7-5.7-1.5-11.4-2.2-17.1-1.2-.1-2.3-.1-3.5-.2l-.4 2.4c-1.1 6.4-1.3 9-1.3 14.3.7.1 1.4.1 2.1.2h.2v3h-.2l-8.1-.6h-.2v-3h.2c.7.1 1.5.1 2.2.2.7-2.6 1-3.8 1.6-6.9l.2-1.2c.7-3.4 1.2-5.5 1.7-8.4-1 0-2-.1-3-.1h-.2v-3h.2c1.2 0 2.4.1 3.6.1 1.4-7.2 2.9-14.6 4.3-21.8V.7h2v.2c1 7.4 2 14.9 3 22.2 1.3.1 2.5.1 3.8.2h.2v3.1h-.2c-1.1-.1-2.2-.1-3.3-.2.8 5.8 1.5 11.6 2.3 17.3.8.1 1.5.1 2.3.2l.3-.1zm-11.4-29.9c-.5 3-.9 6-1.4 9 .9 0 1.7.1 2.6.1-.4-3.1-.8-6.1-1.2-9.1zm29.6 6.8c-.4-.7-.7-1.3-1.1-2-.3-.5-.6-1-.9-1.4-2.1-3.2-2.8-4.4-2.8-7.4 0-2.2.6-4.1 1.6-5.1.4-.4.9-.6 1.4-.6 1.6 0 2.5 1.9 3.7 5.1v4.5l1.8.1V0h-1.8v2.2c-1.3-.9-2.3-1.4-3.7-1.4-4.6 0-7.3 4.8-7.3 12.7 0 4.9 1.6 8.5 4.4 13 .5.8 1 1.5 1.5 2.3 3.4 5.5 4.1 7.1 4.1 11.6 0 2.7-.6 4.7-1.6 5.7-.5.4-1 .6-1.6.5-1.5-.2-2.7-1.7-4.4-5.8v-4.4l-1.8-.1v12.9h.2c.5.1.9.1 1.4.2h.2v-2.1c1.6 1.7 2.9 2.5 4.3 2.6h.6c1.1 0 2.2-.4 3.1-1.2 2.3-2 3.6-6.7 3.6-13 0-5.9-1.1-9.3-4.9-15.2z"/></svg>