<?xml version="1.0" encoding="utf-8"?>
<!-- Generator: Adobe Illustrator 25.3.1, SVG Export Plug-In . SVG Version: 6.00 Build 0)  -->
<svg version="1.1" id="Layer_1" xmlns="http://www.w3.org/2000/svg" xmlns:xlink="http://www.w3.org/1999/xlink" x="0px" y="0px"
	 viewBox="0 0 26.5 26.5" style="enable-background:new 0 0 26.5 26.5;" xml:space="preserve">
<style type="text/css">
	.st0{fill:#FFFFFF;}
	.st1{fill:#333333;}
</style>
<path class="st0" d="M13.2,10.7c-1.4,0-2.5,1.1-2.5,2.5s1.1,2.5,2.5,2.5c1.4,0,2.5-1.1,2.5-2.5C15.8,11.9,14.6,10.7,13.2,10.7z"/>
<path class="st1" d="M16.5,7.2H10c-1.6,0-2.9,1.3-2.9,2.9l0,0v6.5c0,1.6,1.3,2.9,2.9,2.9c0,0,0,0,0,0h6.5c1.6,0,2.9-1.3,2.9-2.9
	c0,0,0,0,0,0V10C19.3,8.4,18.1,7.2,16.5,7.2C16.5,7.2,16.5,7.2,16.5,7.2z M13.2,17.2c-2.1,0-3.9-1.7-3.9-3.9s1.7-3.9,3.9-3.9
	s3.9,1.7,3.9,3.9l0,0C17.1,15.4,15.4,17.2,13.2,17.2z M17.3,10.1c-0.5,0-0.9-0.4-0.9-0.9s0.4-0.9,0.9-0.9c0.5,0,0.9,0.4,0.9,0.9
	C18.2,9.7,17.8,10.1,17.3,10.1z"/>
<path class="st1" d="M13.2,0C5.9,0,0,5.9,0,13.2s5.9,13.2,13.2,13.2s13.2-5.9,13.2-13.2S20.5,0,13.2,0C13.2,0,13.2,0,13.2,0z
	 M20.7,16.4c0,2.4-1.9,4.3-4.3,4.3c0,0,0,0,0,0h-6.3c-2.4,0-4.3-1.9-4.3-4.3v-6.3c0-2.4,1.9-4.3,4.3-4.3h6.3c2.4,0,4.3,1.9,4.3,4.3
	V16.4z"/>
</svg>
