<svg xmlns="http://www.w3.org/2000/svg" width="26.464" height="26.464"><path d="M13.236 10.748a2.521 2.521 0 1 0 2.521 2.522 2.522 2.522 0 0 0-2.521-2.522z" fill="#fff"/><path d="M16.474 7.156H9.992a2.871 2.871 0 0 0-2.871 2.871v6.484a2.871 2.871 0 0 0 2.871 2.872h6.484a2.871 2.871 0 0 0 2.872-2.872v-6.484a2.871 2.871 0 0 0-2.874-2.871zm-3.242 10a3.889 3.889 0 1 1 3.889-3.889 3.889 3.889 0 0 1-3.889 3.889zm4.019-7.019a.906.906 0 1 1 .905-.907.907.907 0 0 1-.905.907z" fill="#fff"/><path d="M13.232 0a13.232 13.232 0 1 0 13.232 13.232A13.232 13.232 0 0 0 13.232 0zm7.494 16.4a4.329 4.329 0 0 1-4.33 4.33H10.06a4.33 4.33 0 0 1-4.33-4.33v-6.336a4.33 4.33 0 0 1 4.33-4.33h6.336a4.33 4.33 0 0 1 4.33 4.33z" fill="#fff"/></svg>