<svg data-name="Group 190" xmlns="http://www.w3.org/2000/svg" width="177.148" height="61.65"><path data-name="Path 76" d="M66.129 1.762a1.272 1.272 0 0 0-1.3-1.451H53.843a1.689 1.689 0 0 0-1.663 1.451l-4.697 31.449 14.4-2.856z" fill="#4d4d4d"/><path data-name="Path 77" d="M88.985 2.126C88.577.964 88.166.312 87.371.312H75.448a1.394 1.394 0 0 0-1.446 1.959l8.013 24.095 13.484-2.672z" fill="#4d4d4d"/><path data-name="Path 78" d="M112.385 31.962l18.488-29.619c.848-1.379.075-2.032-.865-2.032h-11.923c-.8 0-1.4.653-2.143 1.814l-15.7 26.582-4.1 6.98z" fill="#4d4d4d"/><path data-name="Path 79" d="M175.821.312h-35.627a1.675 1.675 0 0 0-1.652 1.451l-3.574 25.02 14.519-3.331 1.47-10.367h23.075a1.761 1.761 0 0 0 1.732-1.522l1.372-9.8a1.286 1.286 0 0 0-1.315-1.451z" fill="#4d4d4d"/><path data-name="Path 80" d="M162.158 23.947h-.008L88.203 40.478l-1.349.311 8.256-12.991-63.422 12.685-15.145 3.028 6.38-42.061a1.268 1.268 0 0 0-1.3-1.451H10.568A1.7 1.7 0 0 0 8.902 1.45L1.556 49.529v.018l-.8 5.213a1.6 1.6 0 0 0 0 .424l-.743 5.235a1.077 1.077 0 0 0 1.368 1.186l30.236-8.942 11.508-3.4 2.058-.609-1.225 8.2a1.254 1.254 0 0 0 1.3 1.523h11.03a1.828 1.828 0 0 0 1.676-1.523l1.858-12.531 4.137-1.224 1.6-.472 10.937-3.234-10.189 14.39 22.5-7 3.543 10.649c.257.726.648 1.524 1.446 1.524h.8c.8 0 1.424-.8 1.892-1.524l10.1-16.18 1.131-.351 15.052-4.681 11.356-3.53-3.451 24.16a1.263 1.263 0 0 0 1.306 1.524h35.706a1.766 1.766 0 0 0 1.738-1.524l1.37-9.8a1.287 1.287 0 0 0-1.319-1.453h-23.13l1.3-9.145h12.317a1.764 1.764 0 0 0 1.737-1.522l1.379-9.8a1.238 1.238 0 0 0-.613-1.254z" fill="#4d4d4d"/></svg>