<svg data-name="Group 187" xmlns="http://www.w3.org/2000/svg" width="129.664" height="64.271"><g data-name="Group 130"><path data-name="Path 100" d="M0 .701V34.63h19.572v-7.718H9.026V.701z" fill="#4d4d4d"/><g data-name="Group 126" transform="translate(20.651)" fill="#4d4d4d"><path data-name="Path 101" d="M9.173 17.693a9.262 9.262 0 0 0 2.6 6.635 8.513 8.513 0 0 0 6.425 2.73 8.407 8.407 0 0 0 6.328-2.73 9.709 9.709 0 0 0 0-13.223 8.409 8.409 0 0 0-6.328-2.729 8.585 8.585 0 0 0-6.425 2.683 9.158 9.158 0 0 0-2.6 6.634M18.198 0a17.779 17.779 0 0 1 12.95 5.034 18.133 18.133 0 0 1 0 25.319 17.774 17.774 0 0 1-12.95 5.035A17.985 17.985 0 0 1 5.151 30.4a18.19 18.19 0 0 1 0-25.365A17.9 17.9 0 0 1 18.198.001"/><path data-name="Path 102" d="M67.789 20.961a30.685 30.685 0 0 1-.661 6.461q-.662 3.08-4.342 5.521a16.224 16.224 0 0 1-9.173 2.443 18.965 18.965 0 0 1-6.326-.985 12.133 12.133 0 0 1-4.709-2.938 9.93 9.93 0 0 1-2.552-4.088 24.072 24.072 0 0 1-.637-6.414V.701h9.026v21.186a16.829 16.829 0 0 0 .146 1.949 3.473 3.473 0 0 0 1.546 2.255 5.648 5.648 0 0 0 3.506 1.057q2.651 0 3.7-1.2a5.136 5.136 0 0 0 1.275-2.253 19.012 19.012 0 0 0 .219-3.453V.701h8.977z"/><path data-name="Path 103" d="M80.689 26.916h3.336a7.9 7.9 0 0 0 6.131-2.588 9.609 9.609 0 0 0 2.355-6.73 9.065 9.065 0 0 0-2.527-6.563 8.469 8.469 0 0 0-6.353-2.612h-2.943zM71.664.706h11.625a36.506 36.506 0 0 1 7.334.848q4.094.845 7.48 5.246a16.746 16.746 0 0 1 3.384 10.518q0 7.718-4.855 12.517t-12.607 4.8H71.664z"/></g><path data-name="Path 104" d="M6.399 42.333v5.965H.253v4.971h6.146v6.033h5.968v-6.033h6.146v-4.971h-6.146v-5.965z" fill="#4d4d4d"/><g data-name="Group 127"><path data-name="Path 105" d="M40.31 46.241a9.367 9.367 0 0 0-2.359-1.269 7.842 7.842 0 0 0-2.536-.377 7.042 7.042 0 0 0-5.074 1.954 6.472 6.472 0 0 0-2.037 4.868 6.631 6.631 0 0 0 2.02 4.953 7.724 7.724 0 0 0 7.789 1.508 9.99 9.99 0 0 0 2.2-1.32l3.181 4.559q-.788.617-1.5 1.114a15.367 15.367 0 0 1-2.556 1.268 13.042 13.042 0 0 1-4.949.772 12.669 12.669 0 0 1-9.29-3.6 12.359 12.359 0 0 1-3.644-9.187 12.5 12.5 0 0 1 3.7-9.238 12.684 12.684 0 0 1 9.343-3.685 13.136 13.136 0 0 1 4.485.632 17.164 17.164 0 0 1 2.483 1.1q.786.463 2.039 1.388z" fill="#4d4d4d"/></g><path data-name="Path 106" d="M45.203 39.008v24.717H59.46v-5.624h-7.683V39.008z" fill="#4d4d4d"/><path data-name="Path 107" d="M60.855 39.008v24.717h15.437v-4.972h-8.861v-5.347h7.431v-4.971h-7.431v-4.456h8.575v-4.972z" fill="#4d4d4d"/><g data-name="Group 128" transform="translate(76.292 39.008)" fill="#4d4d4d"><path data-name="Path 108" d="M9.684 15.529h5.574L13.221 9.29l-.357-1.337a16.852 16.852 0 0 1-.285-1.662 17.052 17.052 0 0 1-.107-2.04q0 1.3-.072 2.057a11.774 11.774 0 0 1-.285 1.645l-.358 1.337zM9.076 0h6.825l9.076 24.715h-6.79l-1.5-4.593H8.255l-1.5 4.593H.001z"/><path data-name="Path 109" d="M31.981 11.175h1.608a4.134 4.134 0 0 0 2.77-.841 2.963 2.963 0 0 0 .983-2.381q0-2.984-3.538-2.983h-1.823zM25.407 0h9.541q1 0 1.893.068a24.069 24.069 0 0 1 2.556.395 5.658 5.658 0 0 1 3.2 2.245 7.231 7.231 0 0 1 1.537 4.663q0 5.483-5.4 6.82l6.967 10.524H38.09l-6.11-10.316v10.316h-6.573z"/></g><g data-name="Group 129" transform="translate(124.051 60.733)" fill="#4d4d4d"><path data-name="Path 110" d="M0 0v.236h1.054v2.67h.288V.236h1.055V0z"/><path data-name="Path 111" d="M5.188 0L4.146 2.549 3.097 0h-.424v2.907h.29V.394h.007l1.039 2.513h.272L5.315.394h.009v2.513h.289V0z"/></g></g></svg>