<svg xmlns="http://www.w3.org/2000/svg" width="26.464" height="26.463"><path d="M13.232 0a13.232 13.232 0 1 0 13.232 13.232A13.232 13.232 0 0 0 13.232 0zm5.721 10.3q.009.19.009.382a8.4 8.4 0 0 1-12.926 7.073 5.944 5.944 0 0 0 4.371-1.222 2.956 2.956 0 0 1-2.757-2.05 2.992 2.992 0 0 0 .555.052 2.956 2.956 0 0 0 .78-.1 2.954 2.954 0 0 1-2.368-2.895v-.037a2.946 2.946 0 0 0 1.337.369 2.957 2.957 0 0 1-.913-3.941 8.386 8.386 0 0 0 6.085 3.085 3.049 3.049 0 0 1-.076-.673 2.954 2.954 0 0 1 5.109-2.02 5.908 5.908 0 0 0 1.875-.716 2.957 2.957 0 0 1-1.3 1.633 5.878 5.878 0 0 0 1.7-.465 6.016 6.016 0 0 1-1.477 1.528z" fill="#fff"/></svg>