<?xml version="1.0" encoding="utf-8"?>
<!-- Generator: Adobe Illustrator 25.3.1, SVG Export Plug-In . SVG Version: 6.00 Build 0)  -->
<svg version="1.1" id="Layer_1" xmlns="http://www.w3.org/2000/svg" xmlns:xlink="http://www.w3.org/1999/xlink" x="0px" y="0px"
	 viewBox="0 0 26.5 26.5" style="enable-background:new 0 0 26.5 26.5;" xml:space="preserve">
<style type="text/css">
	.st0{fill:#333333;}
</style>
<path class="st0" d="M13.2,0C5.9,0,0,5.9,0,13.2s5.9,13.2,13.2,13.2s13.2-5.9,13.2-13.2S20.5,0,13.2,0C13.2,0,13.2,0,13.2,0z
	 M19,10.3c0,0.1,0,0.3,0,0.4c0,4.6-3.8,8.4-8.4,8.4c-1.6,0-3.2-0.5-4.5-1.3c1.6,0.2,3.1-0.3,4.4-1.2c-1.3,0-2.4-0.8-2.8-2.1
	c0.2,0,0.4,0.1,0.6,0.1c0.3,0,0.5,0,0.8-0.1c-1.4-0.3-2.4-1.5-2.4-2.9v0C7,11.7,7.5,11.9,8,11.9C6.7,11,6.3,9.3,7,7.9
	c1.5,1.8,3.7,3,6.1,3.1c-0.1-0.2-0.1-0.4-0.1-0.7c0-1.6,1.3-3,3-3c0.8,0,1.6,0.3,2.2,0.9C18.8,8.2,19.5,8,20,7.6
	c-0.2,0.7-0.7,1.3-1.3,1.6c0.6-0.1,1.2-0.2,1.7-0.5C20,9.4,19.5,9.9,19,10.3L19,10.3z"/>
</svg>
